<?xml version="1.0" encoding="UTF-8"?>
<svg width="151px" height="35px" viewBox="0 0 151 35" version="1.1" xmlns="http://www.w3.org/2000/svg" xmlns:xlink="http://www.w3.org/1999/xlink">
    <title>573B96DB-862E-4370-9396-12A7C5278C2E</title>
    <g id="Web" stroke="none" stroke-width="1" fill="none" fill-rule="evenodd">
        <g id="Tringhub_Home_Final" transform="translate(-40.000000, -35.000000)">
            <g id="Logo" transform="translate(40.000000, 35.000000)">
                <path d="M4.67645292,4.05371008 C3.89080883,6.19316818 2.99292987,8.22002322 0.374116234,8.44522934 L0,11.1852371 L2.65622526,11.1852371 L2.65622526,21.2069092 C2.65622526,23.8343139 2.61881364,27.4376118 8.45502689,27.4376118 C10.2133732,27.4376118 12.0839544,26.9121308 13.2063031,26.1239094 L12.0839544,23.2337643 C11.4853684,23.6091078 10.5500778,24.0219857 9.53996396,24.0219857 C8.00608741,24.0219857 7.10820844,23.3463673 7.10820844,21.0567718 L7.10820844,11.1852371 L11.7098381,11.1852371 L12.0839544,8.03235146 L7.10820844,8.03235146 L7.10820844,4.05371008 L4.67645292,4.05371008 Z" id="Path" fill="#FFFFFF"></path>
                <path d="M17.5086397,22.7082833 C17.5086397,23.6466421 17.1345235,23.8718483 16.4237027,23.946917 L15.1891191,24.05952 L15.1891191,26.9121308 L25.2154342,26.9121308 L25.2154342,23.946917 L21.9606229,23.7967796 L21.9606229,15.0888098 C21.9606229,12.9118173 23.344853,11.2978401 25.3650807,11.2978401 C25.7766085,11.2978401 26.0384899,11.3353745 26.3751945,11.4855119 C26.6744875,11.6356493 26.7493107,11.9734585 26.7493107,12.4238707 L26.7493107,14.1504509 L30.2285917,13.8877105 L30.2285917,8.29509193 C28.9940081,7.69454229 27.8716594,7.46933617 26.6370759,7.46933617 C24.1679087,7.46933617 22.1850927,8.97071028 21.3246253,10.8474279 L21.3246253,8.03235146 L15.002061,8.03235146 L15.002061,11.072634 L16.5733492,11.1852371 C17.28417,11.2227714 17.5086397,11.4855119 17.5086397,12.3112677 L17.5086397,22.7082833 Z" id="Path" fill="#FFFFFF"></path>
                <path d="M38.8706767,8.03235146 L32.1739961,8.03235146 L32.1739961,11.1477027 L33.4834029,11.2227714 C34.1942238,11.2227714 34.4186935,11.4855119 34.4186935,12.3112677 L34.4186935,22.7458177 C34.4186935,23.6466421 34.0071657,23.8718483 33.3337564,23.946917 L32.0991729,24.05952 L32.0991729,26.9121308 L41.0031392,26.9121308 L41.0031392,23.9093826 L38.8706767,23.7967796 L38.8706767,8.03235146 Z" id="Path" fill="#FFFFFF"></path>
                <path d="M33.3711681,2.81507645 C33.3711681,4.39151926 34.4935168,5.55508419 36.2144514,5.55508419 C37.8979745,5.55508419 39.0951464,4.39151926 39.0951464,2.81507645 C39.0951464,1.23863364 37.8979745,0 36.2518631,0 C34.4935168,0 33.3711681,1.23863364 33.3711681,2.81507645 Z" id="Path" fill="#FFFFFF"></path>
                <path d="M43.1356018,11.0350997 L44.70689,11.1477027 C45.3802992,11.1852371 45.6421805,11.4855119 45.6421805,12.3112677 L45.6421805,22.7082833 C45.6421805,23.6466421 45.2680643,23.8718483 44.5572435,23.946917 L43.3226599,24.05952 L43.3226599,26.9121308 L52.2266263,26.9121308 L52.2266263,23.9093826 L50.0941637,23.7967796 L50.0941637,14.7134662 C50.0941637,12.7616799 51.4783938,10.9224966 53.9475609,10.9224966 C56.4915513,10.9224966 57.015314,12.4989394 57.015314,14.9762067 L57.015314,22.7082833 C57.015314,23.6466421 56.6411978,23.8718483 55.930377,23.946917 L54.6957934,24.05952 L54.6957934,26.9121308 L63.5997598,26.9121308 L63.5997598,23.9093826 L61.4672972,23.7967796 L61.4672972,14.0003135 C61.4672972,9.57125992 59.2600115,7.46933617 55.5188491,7.46933617 C53.049682,7.46933617 50.7675729,8.59536675 49.4581661,10.4720844 L49.4581661,8.03235146 L43.1356018,8.03235146 L43.1356018,11.0350997 Z" id="Path" fill="#FFFFFF"></path>
                <path d="M75.2347746,7.46933617 C77.0305326,7.46933617 79.9486392,7.9197484 82.155925,8.85810722 L82.155925,8.85810722 L82.155925,22.783352 C82.155925,24.0970544 82.1933366,25.5233598 82.0811017,26.8745965 C81.6321622,32.3921463 79.0507602,34.9444823 73.4390167,34.9444823 C71.0820844,34.9444823 67.9769197,34.4940701 66.4056315,33.7058487 L66.4056315,33.7058487 L66.4056315,28.4885736 L69.9597357,28.1882988 L69.9597357,29.9899477 C69.9597357,30.7031004 70.1467939,31.078444 70.8202031,31.3411844 C71.5310239,31.6039249 72.3540796,31.716528 73.4764283,31.716528 C76.9182977,31.716528 77.8161767,29.3518637 77.8161767,26.1989781 L77.8161767,26.1989781 L77.8161767,24.1345887 C76.5441815,25.6359628 74.6736003,26.2365125 72.8404307,26.2365125 C67.3783337,26.2365125 65.5077526,21.7323902 65.5077526,17.453474 C65.5077526,10.6597561 69.5856195,7.46933617 75.2347746,7.46933617 Z M74.8232468,10.7348248 C71.718082,10.7348248 70.1093822,13.2120921 70.1093822,17.0030617 C70.1093822,19.5553977 70.5209101,22.9334894 74.0001911,22.9334894 C76.095242,22.9334894 77.8161767,21.5447184 77.8161767,19.2551229 L77.8161767,19.2551229 L77.8161767,11.1852371 C76.9557093,10.8849623 75.8707722,10.7348248 74.8232468,10.7348248 Z" id="Combined-Shape" fill="#FFFFFF"></path>
                <path d="M85.5079108,28 L90.2679108,28 L90.2679108,17.596 C90.2679108,14.57 91.9339108,12.938 94.5179108,12.938 C97.0339108,12.938 98.6999108,14.57 98.6999108,17.596 L98.6999108,28 L103.459911,28 L103.459911,16.95 C103.459911,11.748 100.365911,8.892 96.1159108,8.892 C93.5999108,8.892 91.4919108,9.912 90.2679108,11.51 L90.2679108,2.84 L85.5079108,2.84 L85.5079108,28 Z" id="Path" fill="#5BBC2E" fill-rule="nonzero"></path>
                <path d="M125.763911,9.164 L120.969911,9.164 L120.969911,19.534 C120.969911,22.56 119.337911,24.192 116.753911,24.192 C114.237911,24.192 112.571911,22.56 112.571911,19.534 L112.571911,9.164 L107.811911,9.164 L107.811911,20.214 C107.811911,25.382 110.973911,28.238 115.359911,28.238 C117.705911,28.238 119.779911,27.218 120.969911,25.62 L120.969911,28 L125.763911,28 L125.763911,9.164 Z" id="Path" fill="#5BBC2E" fill-rule="nonzero"></path>
                <path d="M135.215911,11.918 L135.215911,2.84 L130.455911,2.84 L130.455911,28 L135.215911,28 L135.215911,25.314 C136.371911,26.946 138.479911,28.306 141.437911,28.306 C146.265911,28.306 150.039911,24.396 150.039911,18.514 C150.039911,12.632 146.265911,8.858 141.437911,8.858 C138.581911,8.858 136.371911,10.184 135.215911,11.918 Z M145.177911,18.514 C145.177911,22.084 142.763911,24.124 140.179911,24.124 C137.629911,24.124 135.215911,22.152 135.215911,18.582 C135.215911,15.012 137.629911,13.04 140.179911,13.04 C142.763911,13.04 145.177911,14.944 145.177911,18.514 Z" id="Shape" fill="#5BBC2E" fill-rule="nonzero"></path>
            </g>
        </g>
    </g>
</svg>